<svg xmlns="http://www.w3.org/2000/svg" width="21" height="22" viewBox="0 0 21 22">
  <defs>
    <style>
      .cls-1 {
        fill: #40403e;
        fill-rule: evenodd;
      }
    </style>
  </defs>
  <path class="cls-1" d="M1258.02,44.865a4.716,4.716,0,0,0,.36-1.814A2.991,2.991,0,0,0,1255.46,40a4.5,4.5,0,0,0-3.35,1.764,0.653,0.653,0,1,1-1.22,0A4.5,4.5,0,0,0,1247.54,40a2.991,2.991,0,0,0-2.92,3.051,4.716,4.716,0,0,0,.36,1.814H1241v8.978h1.57V62h17.81V53.842H1262V44.865h-3.98Zm-10.48-3.271c1.39,0,2.7,1.836,3.09,3.271h-3.09a1.785,1.785,0,0,1-1.39-1.814A1.424,1.424,0,0,1,1247.54,41.594Zm3.2,18.761h-6.49V53.842h6.49v6.512h0Zm0-8.157h-8.11V46.51h8.11V52.2Zm4.72-10.6a1.424,1.424,0,0,1,1.39,1.457,1.785,1.785,0,0,1-1.39,1.814h-3.09C1252.76,43.43,1254.07,41.594,1255.46,41.594Zm3.29,18.761h-6.49V53.842h6.49v6.512h0Zm1.62-8.157h-8.11V46.51h8.11V52.2Z" transform="translate(-1241 -40)"/>
</svg>
