<?xml version="1.0" encoding="iso-8859-1"?>
<!-- Generator: Adobe Illustrator 19.0.0, SVG Export Plug-In . SVG Version: 6.00 Build 0)  -->
<svg version="1.1" id="Capa_1" xmlns="http://www.w3.org/2000/svg" xmlns:xlink="http://www.w3.org/1999/xlink" x="0px" y="0px"
	 viewBox="0 0 490 490" style="enable-background:new 0 0 490 490;" xml:space="preserve">
<g>
	<path d="M245,0C109.9,0,0,109.9,0,245s109.9,245,245,245s245-109.9,245-245S380.1,0,245,0z M41,245c0-112.5,91.5-204,204-204
		c49,0,94,17.4,129.2,46.3l-287,287C58.4,339,41,294,41,245z M245,449c-49,0-94-17.4-129.2-46.3l287-287C431.6,151,449,196,449,245
		C449,357.5,357.5,449,245,449z"/>
</g>
<g>
</g>
<g>
</g>
<g>
</g>
<g>
</g>
<g>
</g>
<g>
</g>
<g>
</g>
<g>
</g>
<g>
</g>
<g>
</g>
<g>
</g>
<g>
</g>
<g>
</g>
<g>
</g>
<g>
</g>
</svg>
