<svg xmlns="http://www.w3.org/2000/svg" width="30" height="30" viewBox="0 0 30 30">
  <defs>
    <style>
      .cls-1 {
        fill: #fff;
        fill-rule: evenodd;
      }
    </style>
  </defs>
  <path id="Forma_1" data-name="Forma 1" class="cls-1" d="M288.08,387.462a2.332,2.332,0,1,0,2.461,2.328A2.4,2.4,0,0,0,288.08,387.462Zm0,3.379a1.058,1.058,0,1,1,1.184-1.051A1.125,1.125,0,0,1,288.08,390.841Zm-14.161-3.379a2.332,2.332,0,1,0,2.461,2.328A2.4,2.4,0,0,0,273.919,387.462Zm0,3.379a1.058,1.058,0,1,1,1.184-1.051A1.125,1.125,0,0,1,273.919,390.841Zm4.246-2.978h5.669v1.276h-5.669v-1.276Zm0,2.578h5.669v1.276h-5.669v-1.276ZM292.524,368H269.476A3.381,3.381,0,0,0,266,371.269v17.18a3.324,3.324,0,0,0,2.687,3.183,3.725,3.725,0,0,0,2.715,3.053v0.931A2.459,2.459,0,0,0,273.923,398h0.4a2.459,2.459,0,0,0,2.522-2.384v-0.77h8.3v0.77A2.459,2.459,0,0,0,287.671,398h0.405a2.459,2.459,0,0,0,2.521-2.384v-0.931a3.726,3.726,0,0,0,2.716-3.053A3.325,3.325,0,0,0,296,388.449v-17.18A3.381,3.381,0,0,0,292.524,368Zm-16.951,27.616a1.183,1.183,0,0,1-1.245,1.107h-0.4a1.183,1.183,0,0,1-1.244-1.107v-0.77h2.894v0.77Zm12.5,1.107h-0.405a1.184,1.184,0,0,1-1.245-1.107v-0.77h2.9v0.77A1.184,1.184,0,0,1,288.076,396.723Zm3.988-5.524a2.5,2.5,0,0,1-2.606,2.37H272.542a2.5,2.5,0,0,1-2.607-2.37v-3.044a2.5,2.5,0,0,1,2.607-2.369h16.916a2.5,2.5,0,0,1,2.606,2.369V391.2h0Zm-18.723-6.69,1.05-4.646a2.765,2.765,0,0,1,2.747-2.04h7.723a2.765,2.765,0,0,1,2.747,2.04l1.051,4.646H273.341Zm21.382,3.94a2.008,2.008,0,0,1-1.382,1.849v-2.143a3.737,3.737,0,0,0-3.366-3.614l-1.121-4.959a4.049,4.049,0,0,0-3.993-3.035h-7.723a4.048,4.048,0,0,0-3.992,3.034l-1.122,4.96a3.737,3.737,0,0,0-3.365,3.614V390.3a2.008,2.008,0,0,1-1.382-1.849v-17.18a2.106,2.106,0,0,1,2.2-1.993h23.048a2.106,2.106,0,0,1,2.2,1.993v17.18h0Zm-19-16.575h10.548v1.276H275.726v-1.276Z" transform="translate(-266 -368)"/>
</svg>
