<svg xmlns="http://www.w3.org/2000/svg" width="30" height="25" viewBox="0 0 30 25">
  <defs>
    <style>
      .cls-1 {
        fill: #fff;
        fill-rule: evenodd;
      }
    </style>
  </defs>
  <path id="Forma_1" data-name="Forma 1" class="cls-1" d="M293.1,221.292l2.9-1.914-0.7-1.124-2.938,1.94L289.243,212H272.757l-3.116,8.194-2.937-1.94-0.7,1.124,2.9,1.914a3.512,3.512,0,0,0-2,3.19v4.695a3.485,3.485,0,0,0,2.782,3.443v1.167a3.129,3.129,0,1,0,6.255,0v-1.106h10.137v1.106a3.129,3.129,0,1,0,6.256,0v-1.166a3.415,3.415,0,0,0,2.39-1.811,3.6,3.6,0,0,0,.392-1.633v-4.695A3.512,3.512,0,0,0,293.1,221.292Zm-19.457-7.955h6.7v2.58h1.3v-2.58h6.7l2.906,7.641H270.741Zm0.983,20.45a1.826,1.826,0,1,1-3.651,0v-1.106h3.651v1.106h0Zm14.567,1.875a1.853,1.853,0,0,1-1.826-1.875v-1.106h3.652v1.106A1.853,1.853,0,0,1,289.2,235.662Zm4.608-6.485a2.195,2.195,0,0,1-.242,1.009,2.1,2.1,0,0,1-1.867,1.157H270.3a2.14,2.14,0,0,1-2.108-2.166v-4.695a2.141,2.141,0,0,1,2.108-2.167H291.7a2.141,2.141,0,0,1,2.109,2.167v4.695Zm-4.1-4.739a2.661,2.661,0,0,0-2.622,2.694,2.69,2.69,0,0,0,1.6,2.481,2.538,2.538,0,0,0,1.021.212,2.616,2.616,0,0,0,2.285-1.371,2.748,2.748,0,0,0,.338-1.322A2.662,2.662,0,0,0,289.7,224.438Zm1.151,3.359a1.339,1.339,0,0,1-1.664.585,1.356,1.356,0,0,1-.807-1.25,1.321,1.321,0,1,1,2.641,0A1.385,1.385,0,0,1,290.852,227.8ZM272.3,224.438a2.694,2.694,0,1,0,2.623,2.694A2.661,2.661,0,0,0,272.3,224.438Zm0,4.05a1.356,1.356,0,1,1,1.321-1.356A1.34,1.34,0,0,1,272.3,228.488Zm6.324-2.025h4.755V227.8h-4.755v-1.338Z" transform="translate(-266 -212)"/>
</svg>
