<svg xmlns="http://www.w3.org/2000/svg" width="30" height="25" viewBox="0 0 30 25">
  <defs>
    <style>
      .cls-1 {
        fill: #fff;
        fill-rule: evenodd;
      }
    </style>
  </defs>
  <path class="cls-1" d="M276.5,448.812a6.255,6.255,0,1,0,6,6.25A6.136,6.136,0,0,0,276.5,448.812Zm-1.5,9.375v1.276a4.727,4.727,0,0,1,0-8.8v5.963A1.441,1.441,0,0,1,275,458.187Zm1.5,1.563v-1.563h3.332A4.4,4.4,0,0,1,276.5,459.75Zm4.224-3.125H276.5v-6.25a4.6,4.6,0,0,1,4.5,4.687A4.807,4.807,0,0,1,280.724,456.625ZM296,442.562A1.532,1.532,0,0,0,294.5,441h-18a1.531,1.531,0,0,0-1.5,1.562v1.688A10.969,10.969,0,0,0,276.5,466h18a1.533,1.533,0,0,0,1.5-1.563v-6.25a1.441,1.441,0,0,1,0-1.562v-6.25a1.443,1.443,0,0,1,0-1.563v-6.25ZM279.531,462.25l-1.427.483,0.451,1.448a8.4,8.4,0,0,1-4.111,0l0.451-1.448-1.426-.483-0.455,1.457a9.046,9.046,0,0,1-3.323-2.527l1.182-.895-0.881-1.264-1.181.894a9.574,9.574,0,0,1-1.273-4.073H269v-1.562h-1.462a9.569,9.569,0,0,1,1.273-4.072l1.181,0.894,0.881-1.265-1.182-.894a9.044,9.044,0,0,1,3.324-2.526l0.455,1.456,1.427-.483-0.452-1.448a8.4,8.4,0,0,1,4.111,0l-0.452,1.449,1.427,0.482,0.454-1.456a9.036,9.036,0,0,1,3.324,2.526l-1.182.9,0.881,1.264,1.18-.894a9.57,9.57,0,0,1,1.274,4.072H284v1.563h1.462a9.569,9.569,0,0,1-1.273,4.072l-1.181-.893-0.881,1.264,1.182,0.894a9.044,9.044,0,0,1-3.324,2.526Zm14.969,2.187H281.88a10.914,10.914,0,0,0,4.678-6.25H294.5v6.25Zm0-7.812h-7.62a11.339,11.339,0,0,0,.12-1.563,11.222,11.222,0,0,0-1.028-4.687H294.5v6.25Zm0-7.813h-9.4a10.376,10.376,0,0,0-8.6-4.687v-1.563h18v6.25Z" transform="translate(-266 -441)"/>
</svg>
