<svg xmlns="http://www.w3.org/2000/svg" width="52" height="22" viewBox="0 0 52 22">
  <defs>
    <style>
      .cls-1 {
        fill: #bbe3ff;
        fill-rule: evenodd;
      }
    </style>
  </defs>
  <path id="Forma_1" data-name="Forma 1" class="cls-1" d="M458.032,1220l-36.329.02a8.149,8.149,0,0,0-5.061,2.09l-6.792,6.81a3,3,0,0,0,0,4.18l6.792,6.81a7.275,7.275,0,0,0,2.342,1.48,7.035,7.035,0,0,0,2.7.59l36.362,0.02a2.821,2.821,0,0,0,2.074-.87,2.946,2.946,0,0,0,.881-2.09l-0.016-16.08a2.818,2.818,0,0,0-.865-2.07A2.942,2.942,0,0,0,458.032,1220Zm-41.027,11a2.008,2.008,0,1,1-.586-1.42A1.919,1.919,0,0,1,417.005,1231Z" transform="translate(-409 -1220)"/>
</svg>
