<svg xmlns="http://www.w3.org/2000/svg" width="9" height="18" viewBox="0 0 9 18">
  <defs>
    <style>
      .cls-1 {
        fill: #005895;
        fill-rule: evenodd;
      }
    </style>
  </defs>
  <path id="Forma_1" data-name="Forma 1" class="cls-1" d="M1106.66,4339h-2.16c-2.42,0-3.99,1.74-3.99,4.43v2.04h-2.17a0.357,0.357,0,0,0-.34.37v2.96a0.357,0.357,0,0,0,.34.37h2.17v7.46a0.351,0.351,0,0,0,.34.37h2.83a0.351,0.351,0,0,0,.34-0.37v-7.46h2.54a0.357,0.357,0,0,0,.34-0.37v-2.96a0.4,0.4,0,0,0-.1-0.26,0.319,0.319,0,0,0-.24-0.11h-2.54v-1.73a1,1,0,0,1,1.19-1.25h1.45a0.357,0.357,0,0,0,.34-0.37v-2.75A0.357,0.357,0,0,0,1106.66,4339Z" transform="translate(-1098 -4339)"/>
</svg>
