<svg xmlns="http://www.w3.org/2000/svg" width="25" height="22" viewBox="0 0 25 22">
  <defs>
    <style>
      .cls-1 {
        fill: #40403e;
        fill-rule: evenodd;
      }
    </style>
  </defs>
  <path class="cls-1" d="M1297.22,40a7.1,7.1,0,0,1-11.44,0c-3.81.06-6.84,2.822-6.78,6.171C1279,52.1,1291.5,62,1291.5,62s12.5-9.9,12.5-15.829C1304.06,42.821,1301.03,40.06,1297.22,40Zm-5.72,19.437c-4.5-3.839-10.37-9.955-10.37-13.266a4.472,4.472,0,0,1,4.65-4.3,4.726,4.726,0,0,1,3.91,1.991l1.81,2.629,1.81-2.629a4.726,4.726,0,0,1,3.91-1.991,4.472,4.472,0,0,1,4.65,4.3C1301.87,49.471,1296,55.6,1291.5,59.437ZM1297.22,40a7.1,7.1,0,0,1-11.44,0c-3.81.06-6.84,2.822-6.78,6.171C1279,52.1,1291.5,62,1291.5,62s12.5-9.9,12.5-15.829C1304.06,42.821,1301.03,40.06,1297.22,40Zm-5.72,19.437c-4.5-3.839-10.37-9.955-10.37-13.266a4.472,4.472,0,0,1,4.65-4.3,4.726,4.726,0,0,1,3.91,1.991l1.81,2.629,1.81-2.629a4.726,4.726,0,0,1,3.91-1.991,4.472,4.472,0,0,1,4.65,4.3C1301.87,49.471,1296,55.6,1291.5,59.437ZM1286.28,46.6h-2.19c0.84,3.564,7.41,8.8,7.41,8.8V52.815C1289.3,50.857,1286.89,48.261,1286.28,46.6Z" transform="translate(-1279 -40)"/>
</svg>
