<svg xmlns="http://www.w3.org/2000/svg" width="16" height="15" viewBox="0 0 16 15">
  <defs>
    <style>
      .cls-1 {
        fill: #005895;
        fill-rule: evenodd;
      }
    </style>
  </defs>
  <path class="cls-1" d="M1138.72,4344.82h-3.21a0.255,0.255,0,0,0-.26.24v9.7a0.255,0.255,0,0,0,.26.24h3.21a0.248,0.248,0,0,0,.26-0.24v-9.7A0.248,0.248,0,0,0,1138.72,4344.82Zm-1.6-4.82a1.994,1.994,0,1,0,2.12,1.99A2.058,2.058,0,0,0,1137.12,4340Zm9.77,4.58a3.894,3.894,0,0,0-2.82,1.11v-0.63a0.248,0.248,0,0,0-.26-0.24h-3.07a0.255,0.255,0,0,0-.26.24v9.7a0.255,0.255,0,0,0,.26.24h3.2a0.248,0.248,0,0,0,.26-0.24v-4.8c0-1.62.47-2.25,1.67-2.25,1.3,0,1.41,1.01,1.41,2.33v4.72a0.248,0.248,0,0,0,.26.24h3.2a0.255,0.255,0,0,0,.26-0.24v-5.32C1151,4347.04,1150.51,4344.58,1146.89,4344.58Z" transform="translate(-1135 -4340)"/>
</svg>
