<svg xmlns="http://www.w3.org/2000/svg" width="15" height="16" viewBox="0 0 15 16">
  <defs>
    <style>
      .cls-1 {
        fill-rule: evenodd;
      }
    </style>
  </defs>
  <path class="cls-1" d="M725.656,2560.55a6.339,6.339,0,0,1-6.145-6.51,6.707,6.707,0,0,1,2.395-5.21v3.57h1.5v-5.6h-5.25v1.6h2.6c-0.128.14-.69,0.27-0.8,0.42a8.365,8.365,0,0,0,.853,11.27,7.206,7.206,0,0,0,4.847,1.91,4.665,4.665,0,0,0,.75-0.04v-1.46A6.256,6.256,0,0,1,725.656,2560.55Zm5.813-1.51a8.268,8.268,0,0,0,1.687-5.04,7.76,7.76,0,0,0-7.5-8,4.671,4.671,0,0,0-.75.04v1.46a6.227,6.227,0,0,1,6.842,5.68,6.747,6.747,0,0,1-2.342,5.99v-3.57h-1.5v5.6h5.25v-1.6h-2.79C730.531,2559.42,731.319,2559.23,731.469,2559.04Z" transform="translate(-718.156 -2546)"/>
</svg>
