<svg xmlns="http://www.w3.org/2000/svg" width="14" height="18" viewBox="0 0 14 18">
  <defs>
    <style>
      .cls-1 {
        fill: #005895;
        fill-rule: evenodd;
      }
    </style>
  </defs>
  <path class="cls-1" d="M1188.18,4341.85a6.729,6.729,0,0,0-4.77-1.85,7.435,7.435,0,0,0-5.54,2.16,6.385,6.385,0,0,0-1.87,4.42c0,2.01.83,3.54,2.22,4.12a0.918,0.918,0,0,0,.28.05,0.615,0.615,0,0,0,.6-0.5c0.05-.18.16-0.62,0.21-0.81a0.766,0.766,0,0,0-.21-0.82,2.642,2.642,0,0,1-.58-1.79,4.468,4.468,0,0,1,4.61-4.53c2.38,0,3.86,1.37,3.86,3.57a7.564,7.564,0,0,1-.83,3.62,2.469,2.469,0,0,1-2.04,1.44,1.344,1.344,0,0,1-1.08-.5,1.233,1.233,0,0,1-.21-1.08c0.1-.46.25-0.93,0.39-1.39a8.743,8.743,0,0,0,.49-2.25,1.625,1.625,0,0,0-1.63-1.8c-1.24,0-2.21,1.27-2.21,2.89a4.145,4.145,0,0,0,.31,1.62c-0.16.67-1.09,4.65-1.26,5.4-0.1.44-.72,3.89,0.3,4.17,1.14,0.31,2.16-3.06,2.26-3.44,0.08-.31.38-1.48,0.56-2.2a3.415,3.415,0,0,0,2.3.9,5.111,5.111,0,0,0,4.11-2.08,8.409,8.409,0,0,0,1.55-5.11A5.873,5.873,0,0,0,1188.18,4341.85Z" transform="translate(-1176 -4340)"/>
</svg>
