<svg xmlns="http://www.w3.org/2000/svg" width="54" height="45" viewBox="0 0 54 45">
  <defs>
    <style>
      .cls-1 {
        fill: none;
        stroke: #ed691f;
        stroke-width: 3px;
        fill-rule: evenodd;
      }
    </style>
  </defs>
  <path class="cls-1" d="M299.224,670.333V675h7.14v16.333H283.182v-7h-4.637V696H311V670.333H299.224ZM260,654v32.666h41.727V654H260Zm37.091,28H264.636V658.666h32.455V682h0Zm-20.31-20.25a3.875,3.875,0,1,1-3.875,3.875A3.875,3.875,0,0,1,276.781,661.75Zm9.042,9.05a3.877,3.877,0,1,1-3.874,3.877A3.874,3.874,0,0,1,285.823,670.8Zm-0.1-7.1,2.032,2.033-11.512,11.523-2.032-2.034Z" transform="translate(-258.5 -652.5)"/>
</svg>
