<svg xmlns="http://www.w3.org/2000/svg" width="17" height="16" viewBox="0 0 17 16"><path fill="#0078bf" d="M13.17 10.27l.88 3.78c.13.56-.28.99-.93.71l-4.3-1.92-4.08 2.35c-.57.32-1.02-.05-1-.64L4.27 10 .73 6.98c-.45-.4-.3-.97.3-1.12l4.67-.9L7.58.73c.29-.54.93-.58 1.2-.07l2.32 4.01 4.72.41c.62.06.88.62.41 1.09l-2.72 2.85s-.53.52-.34 1.24zm-1.4-1.34l2.57-2.67-3.73-.32a.7.7 0 0 1-.5-.32L8.25 2.44 6.78 5.78a.65.65 0 0 1-.47.38l-3.7.7 2.84 2.41c.15.14.24.35.21.56l-.45 3.6 3.24-1.85c.18-.1.4-.11.6-.04l3.4 1.53-.84-3.56a.67.67 0 0 1 .17-.58z"/></svg>