<svg xmlns="http://www.w3.org/2000/svg" width="43" height="15" viewBox="0 0 43 15"><path fill="#d3d3d3" d="M2.65 3.03l1.61 11.75H8.2L15.54.23H11.4L8.28 6.98A84 84 0 0 0 7.13 9.6c-.06-.83-.12-1.63-.2-2.46L6.29.23H0l6.55 5.3zm15.72 11.75L21.07.23h-3.7l-2.71 14.55zm2.18-.85c.87.66 2.39 1.06 4.08 1.06 3.51 0 5.87-2.03 5.87-5.04 0-1.65-.95-2.95-2.88-3.99-1.08-.62-1.74-1.04-1.74-1.56 0-.49.51-1.02 1.7-1.02a4.7 4.7 0 0 1 2.22.56l.43.23L31.41.93 31.1.76a6.71 6.71 0 0 0-3.36-.75c-3.36 0-5.71 2.01-5.71 4.88 0 2.08 1.61 3.24 3.01 4.01 1.33.7 1.59 1.1 1.59 1.56 0 .87-.93 1.18-1.72 1.18-1.03 0-2.11-.3-2.95-.81l-.41-.26-1.26 3.16zm13.52.85l1.59-3.55h3.22l.27 3.55H43L41.33.23h-4.3L30.1 14.78zm3.87-8.99c.15-.32.3-.69.45-1.08l.07.95.23 2.48h-1.8z"/></svg>