<svg xmlns="http://www.w3.org/2000/svg" width="111" height="103" viewBox="0 0 111 103"><path fill="#ed691f" d="M103.4 42.77H81.81c-1.1 0-1.98.87-1.98 1.94 0 1.07.89 1.94 1.98 1.94h18.04l5.74 52.46H5.49l6.75-52.46H30.3c1.1 0 1.98-.87 1.98-1.94 0-1.07-.88-1.94-1.98-1.94H8.74L1 103h109zm-49.6 31c-.28.17-.6.32-.87.49-.44.28-.87.57-1.28.87a1.91 1.91 0 0 0-.43 2.71 2 2 0 0 0 2.77.42 20.16 20.16 0 0 1 3.1-1.86c.92-.46 1.3-1.54.91-2.47l.05-.04c3.59-3.72 15.66-17.68 20.66-40.92a39.18 39.18 0 0 0 .68-13.44C77.7 6.75 69.6 0 56 0c-13.6 0-21.7 6.75-23.4 19.53-.57 4.21-.34 8.73.67 13.44 4.95 23.02 16.84 36.92 20.55 40.8zM36.52 20.04C37.96 9.17 44.34 3.89 56 3.89S74 9.17 75.46 20.04c.5 3.77.3 7.85-.62 12.13-4.5 20.9-15.22 34.15-18.85 38.18-3.64-4.03-14.36-17.29-18.85-38.18a35.45 35.45 0 0 1-.63-12.13zM56 36.77c8.02 0 14.55-6.41 14.55-14.28 0-7.87-6.53-14.27-14.55-14.27-8.03 0-14.56 6.4-14.56 14.27 0 7.87 6.53 14.28 14.56 14.28zm0-24.66A10.5 10.5 0 0 1 66.58 22.5a10.5 10.5 0 0 1-10.6 10.38A10.5 10.5 0 0 1 45.4 22.5a10.5 10.5 0 0 1 10.59-10.39zm7.27 58.16a1.95 1.95 0 0 0-1.52 2.31 1.98 1.98 0 0 0 2.35 1.49 46 46 0 0 1 3.74-.6 1.95 1.95 0 0 0 1.72-2.17 1.95 1.95 0 0 0-2.2-1.69c-1.44.17-2.81.4-4.09.66zm10.25.79a1.96 1.96 0 0 0 1.98 1.86h.08l3.97-.16a1.96 1.96 0 0 0 1.89-2.03 2.02 2.02 0 0 0-2.07-1.85l-3.96.16c-1.09.04-1.94.95-1.89 2.02zM45.44 80a49.08 49.08 0 0 1-3.13 2.15 1.92 1.92 0 0 0-.58 2.69 1.98 1.98 0 0 0 2.74.57c1.14-.72 2.27-1.5 3.36-2.3a1.93 1.93 0 0 0 .39-2.73 2.02 2.02 0 0 0-2.78-.38zM89.6 67.19c-.67.46-1.54.8-2.67 1.02a1.95 1.95 0 0 0-1.54 2.3 1.97 1.97 0 0 0 2.35 1.51c1.66-.34 3.02-.88 4.15-1.66l.26-.19a1.92 1.92 0 0 0 .39-2.72 2.01 2.01 0 0 0-2.78-.38zM18.55 82.38a1.94 1.94 0 0 0-1.4-2.38 1.98 1.98 0 0 0-2.42 1.37 12.73 12.73 0 0 0-.4 4.55c.1 1.01.96 1.75 1.96 1.75l.2-.01a1.96 1.96 0 0 0 1.78-2.13 7.6 7.6 0 0 1-.03-1.24c.04-.63.14-1.27.31-1.91zm71-30.29a11.82 11.82 0 0 0-4.72.35 1.93 1.93 0 0 0-1.37 2.39 1.97 1.97 0 0 0 2.45 1.35 7.7 7.7 0 0 1 3.12-.24c1.1.14 2.08-.6 2.22-1.66a1.95 1.95 0 0 0-1.7-2.19zm3.95 9.62a1.93 1.93 0 0 0 1.3 2.43 1.98 1.98 0 0 0 2.48-1.28 8.24 8.24 0 0 0 .38-2.36c0-.91-.17-1.82-.5-2.7a2 2 0 0 0-2.55-1.15 1.93 1.93 0 0 0-1.17 2.5c.17.45.26.91.26 1.35v.23a4.3 4.3 0 0 1-.2.98zm-57.87 24.1a55.7 55.7 0 0 1-3.51 1.47 1.93 1.93 0 0 0-1.13 2.51 1.99 1.99 0 0 0 2.56 1.12 63.01 63.01 0 0 0 3.77-1.58c.99-.46 1.41-1.62.95-2.59a2 2 0 0 0-2.64-.93zm-14.42-8.09c.32 0 .64-.08.95-.24.57-.3 1.18-.49 1.8-.56.27-.03.54-.03.8 0 1.12.14 2.09-.6 2.23-1.67a1.95 1.95 0 0 0-1.7-2.18 8.84 8.84 0 0 0-5.03 1 1.92 1.92 0 0 0-.8 2.63 2 2 0 0 0 1.75 1.02zm-.41 15.23a12.97 12.97 0 0 0 4.68.21 1.94 1.94 0 0 0 1.72-2.17 1.98 1.98 0 0 0-2.22-1.68c-.8.1-1.6.12-2.4.03a5.27 5.27 0 0 1-.79-.15 1.98 1.98 0 0 0-2.41 1.39 1.95 1.95 0 0 0 1.42 2.37z"/></svg>