<svg xmlns="http://www.w3.org/2000/svg" width="118" height="103" viewBox="0 0 118 103"><path fill="#ed691f" d="M39.33 37.63h-23.6c-1.18 0-1.96.8-1.96 1.99v7.92c0 1.19.78 1.98 1.96 1.98h23.6c1.18 0 1.97-.79 1.97-1.98v-7.92c0-1.19-.79-1.99-1.97-1.99zm-1.96 7.93H17.7V41.6h19.67zm64.9-7.93h-5.9v-5.94c0-1.19-.79-1.98-1.97-1.98h-7.87c-1.18 0-1.96.79-1.96 1.98v5.94h-5.9c-1.18 0-1.97.8-1.97 1.99v7.92c0 1.19.79 1.98 1.97 1.98h5.9v5.94c0 1.19.78 1.98 1.96 1.98h7.87c1.18 0 1.97-.79 1.97-1.98v-5.94h5.9c1.18 0 1.96-.79 1.96-1.98v-7.92c0-1.19-.78-1.99-1.96-1.99zm-7.87 7.93c-1.18 0-1.97.79-1.97 1.98v5.94H88.5v-5.94c0-1.19-.79-1.98-1.97-1.98h-5.9V41.6h5.9c1.18 0 1.97-.8 1.97-1.98v-5.95h3.93v5.95c0 1.18.79 1.98 1.97 1.98h5.9v3.96zm21.63 45.56h-1.96V21.79c0-1.19-.79-1.98-1.97-1.98h-4.72l-3.34-6.74c-.4-.79-.99-1.19-1.77-1.19v-9.9c0-1.19-.79-1.98-1.97-1.98H88.5c-1.18 0-1.97.79-1.97 1.98v9.9c-.78 0-1.37.4-1.77 1l-3.44 6.93h-2.65V3.96A3.96 3.96 0 0 0 74.73 0H43.27a3.96 3.96 0 0 0-3.94 3.96v15.85h-2.75l-3.34-6.74c-.4-.79-.99-1.19-1.77-1.19v-9.9C31.47.79 30.68 0 29.5 0H17.7c-1.18 0-1.97.79-1.97 1.98v9.9c-.78 0-1.37.4-1.77 1l-3.44 6.93H5.9c-1.18 0-1.97.79-1.97 1.98v69.33H1.97C.79 91.12 0 91.91 0 93.1v7.92c0 1.19.79 1.98 1.97 1.98h114.06c1.18 0 1.97-.79 1.97-1.98V93.1c0-1.19-.79-1.98-1.97-1.98zM90.47 3.96h7.86v7.92h-7.86zM87.7 15.85h13.38l1.96 3.96h-17.3zM74.73 3.96v15.85H70.8v-7.93a3.96 3.96 0 0 0-3.93-3.96H51.13a3.96 3.96 0 0 0-3.93 3.96v7.93h-3.93V3.96zm-23.6 7.92h15.74v7.93H51.13zM19.67 3.96h7.86v7.92h-7.86zM16.9 15.85H30.3l1.96 3.96h-17.3zm-9.04 7.92h102.26v67.35H7.87zM3.93 99.04v-3.96h110.14v3.96z"/></svg>