<?xml version="1.0" encoding="UTF-8"?><!DOCTYPE svg PUBLIC "-//W3C//DTD SVG 1.1//EN" "http://www.w3.org/Graphics/SVG/1.1/DTD/svg11.dtd"><svg xmlns="http://www.w3.org/2000/svg"><defs>
    </defs><symbol id="icon-arr-bott" viewBox="0 0 13 9">
    <path d="M1 2.52L2.36 1l4.6 4.99 4.68-4.93L13 2.54 7 9z"/>
</symbol><symbol id="icon-arrow-b" viewBox="0 0 13 21">
    <path d="M9.72.99l2.29 2.3-7.49 7.66 7.38 7.8L9.7 21 0 11.01z"/>
</symbol><symbol id="icon-arrow-sld" viewBox="0 0 9 13">
    <path d="M2.52.99L1 2.37l4.99 4.6-4.93 4.68L2.54 13 9 7z"/>
</symbol><symbol id="icon-arrow" viewBox="0 0 13 12">
    <path d="M6.86 11.99L5.51 10.5l3.5-3.47H1l.02-2.07h8.05L5.54 1.43 6.96.01 13 5.97z"/>
</symbol><symbol id="icon-balloon-sm" viewBox="0 0 15 21">
    <path d="M7.5 1C3.36 1 0 4.58 0 9c0 4.73 7.5 12 7.5 12S15 13.73 15 9c0-4.42-3.36-8-7.5-8zm0 17.62c-2.71-3-5.84-7.22-5.84-9.62.02-3.43 2.62-6.21 5.84-6.24 3.22.03 5.82 2.8 5.84 6.24 0 2.45-3.13 6.62-5.84 9.62zM5.8 8.27c0 1 .76 1.82 1.7 1.82s1.7-.81 1.7-1.82c0-1-.76-1.82-1.7-1.82s-1.7.82-1.7 1.82z"/>
</symbol><symbol id="icon-basket-btn" viewBox="0 0 16.375 13.34">
    
    <path id="Shape_1_copy_3" data-name="Shape 1 copy 3" class="cls-1" d="M317.382 1771.69l-3.4 7h-9.412l-1.3-8.27H301v-1.27h3.48l.4 2.54h12.5zm-11.6 5.72h7.294l2.164-4.45h-10.155zm.786 2.55a1.275 1.275 0 1 1-1.391 1.27 1.336 1.336 0 0 1 1.39-1.27zm5.568 0a1.275 1.275 0 1 1-1.392 1.27 1.336 1.336 0 0 1 1.391-1.27z" transform="translate(-301 -1769.16)"/>
</symbol><symbol id="icon-basket" viewBox="0 0 27 22">
    
    <path class="cls-1" d="M27 4.19l-5.61 11.524H5.88L3.75 2.095H0V0h5.73l.67 4.191H27zM7.88 13.619H19.9l3.57-7.333H6.73zm1.3 4.191a2.1 2.1 0 1 1-2.3 2.1 2.2 2.2 0 0 1 2.3-2.101zm9.17 0a2.1 2.1 0 1 1-2.29 2.1 2.2 2.2 0 0 1 2.29-2.101z"/>
</symbol><symbol id="icon-box" viewBox="0 0 21 22">
    
    <path class="cls-1" d="M17.02 4.865a4.716 4.716 0 0 0 .36-1.814A2.991 2.991 0 0 0 14.46 0a4.5 4.5 0 0 0-3.35 1.764.653.653 0 1 1-1.22 0A4.5 4.5 0 0 0 6.54 0a2.991 2.991 0 0 0-2.92 3.051 4.716 4.716 0 0 0 .36 1.814H0v8.978h1.57V22h17.81v-8.158H21V4.865h-3.98zM6.54 1.594c1.39 0 2.7 1.836 3.09 3.271H6.54a1.785 1.785 0 0 1-1.39-1.814 1.424 1.424 0 0 1 1.39-1.457zm3.2 18.761H3.25v-6.513h6.49v6.512zm0-8.157H1.63V6.51h8.11v5.69zm4.72-10.6a1.424 1.424 0 0 1 1.39 1.457 1.785 1.785 0 0 1-1.39 1.814h-3.09c.39-1.439 1.7-3.275 3.09-3.275zm3.29 18.761h-6.49v-6.517h6.49v6.512zm1.62-8.157h-8.11V6.51h8.11v5.69z"/>
</symbol><symbol id="icon-cancel" viewBox="0 0 490 490">
    <path d="M245 0C109.9 0 0 109.9 0 245s109.9 245 245 245 245-109.9 245-245S380.1 0 245 0zM41 245c0-112.5 91.5-204 204-204 49 0 94 17.4 129.2 46.3l-287 287C58.4 339 41 294 41 245zm204 204c-49 0-94-17.4-129.2-46.3l287-287C431.6 151 449 196 449 245c0 112.5-91.5 204-204 204z"/>
</symbol><symbol id="icon-car-village" viewBox="0 0 30 30">
    
    <path id="Forma_1" data-name="Forma 1" class="cls-1" d="M288.08 387.462a2.332 2.332 0 1 0 2.461 2.328 2.4 2.4 0 0 0-2.461-2.328zm0 3.379a1.058 1.058 0 1 1 1.184-1.051 1.125 1.125 0 0 1-1.184 1.051zm-14.161-3.379a2.332 2.332 0 1 0 2.461 2.328 2.4 2.4 0 0 0-2.461-2.328zm0 3.379a1.058 1.058 0 1 1 1.184-1.051 1.125 1.125 0 0 1-1.184 1.051zm4.246-2.978h5.669v1.276h-5.669v-1.276zm0 2.578h5.669v1.276h-5.669v-1.276zM292.524 368h-23.048a3.381 3.381 0 0 0-3.476 3.269v17.18a3.324 3.324 0 0 0 2.687 3.183 3.725 3.725 0 0 0 2.715 3.053v.931a2.459 2.459 0 0 0 2.521 2.384h.4a2.459 2.459 0 0 0 2.522-2.384v-.77h8.3v.77a2.459 2.459 0 0 0 2.526 2.384h.405a2.459 2.459 0 0 0 2.521-2.384v-.931a3.726 3.726 0 0 0 2.716-3.053 3.325 3.325 0 0 0 2.687-3.183v-17.18a3.381 3.381 0 0 0-3.476-3.269zm-16.951 27.616a1.183 1.183 0 0 1-1.245 1.107h-.4a1.183 1.183 0 0 1-1.244-1.107v-.77h2.894v.77zm12.5 1.107h-.405a1.184 1.184 0 0 1-1.245-1.107v-.77h2.9v.77a1.184 1.184 0 0 1-1.247 1.107zm3.988-5.524a2.5 2.5 0 0 1-2.606 2.37h-16.913a2.5 2.5 0 0 1-2.607-2.37v-3.044a2.5 2.5 0 0 1 2.607-2.369h16.916a2.5 2.5 0 0 1 2.606 2.369v3.045zm-18.723-6.69l1.05-4.646a2.765 2.765 0 0 1 2.747-2.04h7.723a2.765 2.765 0 0 1 2.747 2.04l1.051 4.646h-15.315zm21.382 3.94a2.008 2.008 0 0 1-1.382 1.849v-2.143a3.737 3.737 0 0 0-3.366-3.614l-1.121-4.959a4.049 4.049 0 0 0-3.993-3.035h-7.723a4.048 4.048 0 0 0-3.992 3.034l-1.122 4.96a3.737 3.737 0 0 0-3.365 3.614v2.145a2.008 2.008 0 0 1-1.382-1.849v-17.18a2.106 2.106 0 0 1 2.2-1.993h23.048a2.106 2.106 0 0 1 2.2 1.993v17.18zm-19-16.575h10.548v1.276h-10.542v-1.276z" transform="translate(-266 -368)"/>
</symbol><symbol id="icon-car" viewBox="0 0 30 25">
    
    <path id="Forma_1" data-name="Forma 1" class="cls-1" d="M293.1 221.292l2.9-1.914-.7-1.124-2.938 1.94-3.119-8.194h-16.486l-3.116 8.194-2.937-1.94-.7 1.124 2.9 1.914a3.512 3.512 0 0 0-2 3.19v4.695a3.485 3.485 0 0 0 2.782 3.443v1.167a3.129 3.129 0 1 0 6.255 0v-1.106h10.137v1.106a3.129 3.129 0 1 0 6.256 0v-1.166a3.415 3.415 0 0 0 2.39-1.811 3.6 3.6 0 0 0 .392-1.633v-4.695a3.512 3.512 0 0 0-2.016-3.19zm-19.457-7.955h6.7v2.58h1.3v-2.58h6.7l2.906 7.641h-20.508zm.983 20.45a1.826 1.826 0 1 1-3.651 0v-1.106h3.651v1.106zm14.567 1.875a1.853 1.853 0 0 1-1.826-1.875v-1.106h3.652v1.106a1.853 1.853 0 0 1-1.819 1.875zm4.608-6.485a2.195 2.195 0 0 1-.242 1.009 2.1 2.1 0 0 1-1.867 1.157H270.3a2.14 2.14 0 0 1-2.108-2.166v-4.695a2.141 2.141 0 0 1 2.108-2.167h21.4a2.141 2.141 0 0 1 2.109 2.167v4.695zm-4.1-4.739a2.661 2.661 0 0 0-2.622 2.694 2.69 2.69 0 0 0 1.6 2.481 2.538 2.538 0 0 0 1.021.212 2.616 2.616 0 0 0 2.285-1.371 2.748 2.748 0 0 0 .338-1.322 2.662 2.662 0 0 0-2.623-2.694zm1.151 3.359a1.339 1.339 0 0 1-1.664.585 1.356 1.356 0 0 1-.807-1.25 1.321 1.321 0 1 1 2.641 0 1.385 1.385 0 0 1-.17.668zm-18.552-3.359a2.694 2.694 0 1 0 2.623 2.694 2.661 2.661 0 0 0-2.623-2.694zm0 4.05a1.356 1.356 0 1 1 1.321-1.356 1.34 1.34 0 0 1-1.321 1.356zm6.324-2.025h4.755v1.337h-4.755v-1.338z" transform="translate(-266 -212)"/>
</symbol><symbol id="icon-clock" viewBox="0 0 16 16">
    <path d="M8.8 7.2V4H7.2v4.8H12V7.2zM8 0a8 8 0 1 0 0 16A8 8 0 0 0 8 0zm0 14.55a6.55 6.55 0 1 1 0-13.1 6.55 6.55 0 0 1 0 13.1z"/>
</symbol><symbol id="icon-close" viewBox="0 0 9 9">
    <path d="M8.63 1.97L7.28.62 4.62 3.28 1.98.62.63 1.97l2.65 2.65L.63 7.28l1.34 1.35 2.66-2.67 2.65 2.67 1.34-1.35-2.65-2.66z"/>
</symbol><symbol id="icon-details" viewBox="0 0 30 25">
    
    <path class="cls-1" d="M10.5 7.812a6.255 6.255 0 1 0 6 6.25 6.136 6.136 0 0 0-6-6.25zM9 17.187v1.276a4.727 4.727 0 0 1 0-8.8v5.963a1.441 1.441 0 0 1 0 1.561zm1.5 1.563v-1.563h3.332A4.4 4.4 0 0 1 10.5 18.75zm4.224-3.125H10.5v-6.25a4.6 4.6 0 0 1 4.5 4.687 4.807 4.807 0 0 1-.276 1.563zM30 1.562A1.532 1.532 0 0 0 28.5 0h-18A1.531 1.531 0 0 0 9 1.562V3.25A10.969 10.969 0 0 0 10.5 25h18a1.533 1.533 0 0 0 1.5-1.563v-6.25a1.441 1.441 0 0 1 0-1.562v-6.25a1.443 1.443 0 0 1 0-1.563v-6.25zM13.531 21.25l-1.427.483.451 1.448a8.4 8.4 0 0 1-4.111 0l.451-1.448-1.426-.483-.455 1.457a9.046 9.046 0 0 1-3.323-2.527l1.182-.895-.881-1.264-1.181.894a9.574 9.574 0 0 1-1.273-4.073H3V13.28H1.538a9.569 9.569 0 0 1 1.273-4.072l1.181.894.881-1.265-1.182-.894a9.044 9.044 0 0 1 3.324-2.526l.455 1.456 1.427-.483-.452-1.448a8.4 8.4 0 0 1 4.111 0l-.452 1.449 1.427.482.454-1.456a9.036 9.036 0 0 1 3.324 2.526l-1.182.9.881 1.264 1.18-.894a9.57 9.57 0 0 1 1.274 4.072H18v1.563h1.462a9.569 9.569 0 0 1-1.273 4.072l-1.181-.893-.881 1.264 1.182.894a9.044 9.044 0 0 1-3.324 2.526zM28.5 23.437H15.88a10.914 10.914 0 0 0 4.678-6.25H28.5v6.25zm0-7.812h-7.62a11.339 11.339 0 0 0 .12-1.563 11.222 11.222 0 0 0-1.028-4.687H28.5v6.25zm0-7.813h-9.4a10.376 10.376 0 0 0-8.6-4.687V1.562h18v6.25z"/>
</symbol><symbol id="icon-discount" viewBox="0 0 52 22">
    
    <path id="Forma_1" data-name="Forma 1" class="cls-1" d="M458.032 1220l-36.329.02a8.149 8.149 0 0 0-5.061 2.09l-6.792 6.81a3 3 0 0 0 0 4.18l6.792 6.81a7.275 7.275 0 0 0 2.342 1.48 7.035 7.035 0 0 0 2.7.59l36.362.02a2.821 2.821 0 0 0 2.074-.87 2.946 2.946 0 0 0 .881-2.09l-.016-16.08a2.818 2.818 0 0 0-.865-2.07 2.942 2.942 0 0 0-2.088-.89zm-41.027 11a2.008 2.008 0 1 1-.586-1.42 1.919 1.919 0 0 1 .586 1.42z" transform="translate(-409 -1220)"/>
</symbol><symbol id="icon-facebook" viewBox="0 0 10 19">
    <title>
        facebook
    </title>
    <path d="M9.766.157v2.946H8.014c-.64 0-1.071.134-1.295.402-.223.268-.335.67-.335 1.205v2.11h3.27l-.435 3.303H6.384v8.471H2.97v-8.47H.123V6.82H2.97V4.387c0-1.384.387-2.457 1.161-3.22C4.904.404 5.934.023 7.222.023c1.093 0 1.941.045 2.544.134z" fill-rule="evenodd"/>
</symbol><symbol id="icon-fb" viewBox="0 0 9 18">
    
    <path id="Forma_1" data-name="Forma 1" class="cls-1" d="M1106.66 4339h-2.16c-2.42 0-3.99 1.74-3.99 4.43v2.04h-2.17a.357.357 0 0 0-.34.37v2.96a.357.357 0 0 0 .34.37h2.17v7.46a.351.351 0 0 0 .34.37h2.83a.351.351 0 0 0 .34-.37v-7.46h2.54a.357.357 0 0 0 .34-.37v-2.96a.4.4 0 0 0-.1-.26.319.319 0 0 0-.24-.11h-2.54v-1.73a1 1 0 0 1 1.19-1.25h1.45a.357.357 0 0 0 .34-.37v-2.75a.357.357 0 0 0-.34-.37z" transform="translate(-1098 -4339)"/>
</symbol><symbol id="icon-file" viewBox="0 0 60 60">
    <path d="M42.5 22h-25a1 1 0 1 0 0 2h25a1 1 0 1 0 0-2z"/>
    <path d="M17.5 16h10a1 1 0 1 0 0-2h-10a1 1 0 1 0 0 2z"/>
    <path d="M42.5 30h-25a1 1 0 1 0 0 2h25a1 1 0 1 0 0-2z"/>
    <path d="M42.5 38h-25a1 1 0 1 0 0 2h25a1 1 0 1 0 0-2z"/>
    <path d="M42.5 46h-25a1 1 0 1 0 0 2h25a1 1 0 1 0 0-2z"/>
    <path d="M38.914 0H6.5v60h47V14.586L38.914 0zm.586 3.414L50.086 14H39.5V3.414zM8.5 58V2h29v14h14v42h-43z"/>
</symbol><symbol id="icon-heart" viewBox="0 0 25 22">
    
    <path class="cls-1" d="M18.22 0A7.1 7.1 0 0 1 6.78 0C2.97.06-.06 2.822 0 6.171 0 12.1 12.5 22 12.5 22S25 12.1 25 6.171C25.06 2.821 22.03.06 18.22 0zM12.5 19.437C8 15.598 2.13 9.482 2.13 6.171a4.472 4.472 0 0 1 4.65-4.3 4.726 4.726 0 0 1 3.91 1.991l1.81 2.629 1.81-2.629a4.726 4.726 0 0 1 3.91-1.991 4.472 4.472 0 0 1 4.65 4.3c0 3.3-5.87 9.429-10.37 13.266zM18.22 0A7.1 7.1 0 0 1 6.78 0C2.97.06-.06 2.822 0 6.171 0 12.1 12.5 22 12.5 22S25 12.1 25 6.171C25.06 2.821 22.03.06 18.22 0zM12.5 19.437C8 15.598 2.13 9.482 2.13 6.171a4.472 4.472 0 0 1 4.65-4.3 4.726 4.726 0 0 1 3.91 1.991l1.81 2.629 1.81-2.629a4.726 4.726 0 0 1 3.91-1.991 4.472 4.472 0 0 1 4.65 4.3c0 3.3-5.87 9.429-10.37 13.266zM7.28 6.6H5.09c.84 3.564 7.41 8.8 7.41 8.8v-2.585C10.3 10.857 7.89 8.261 7.28 6.6z"/>
</symbol><symbol id="icon-in" viewBox="0 0 16 15">
    
    <path class="cls-1" d="M3.72 4.82H.51a.255.255 0 0 0-.26.24v9.7a.255.255 0 0 0 .26.24h3.21a.248.248 0 0 0 .26-.24v-9.7a.248.248 0 0 0-.26-.24zM2.12 0a1.994 1.994 0 1 0 2.12 1.99A2.058 2.058 0 0 0 2.12 0zm9.77 4.58a3.894 3.894 0 0 0-2.82 1.11v-.63a.248.248 0 0 0-.26-.24H5.74a.255.255 0 0 0-.26.24v9.7a.255.255 0 0 0 .26.24h3.2a.248.248 0 0 0 .26-.24v-4.8c0-1.62.47-2.25 1.67-2.25 1.3 0 1.41 1.01 1.41 2.33v4.72a.248.248 0 0 0 .26.24h3.2a.255.255 0 0 0 .26-.24V9.44c0-2.4-.49-4.86-4.11-4.86z"/>
</symbol><symbol id="icon-list-view" viewBox="0 0 18 18">
    <path d="M0 18v-4h4v4zm0-7V7h4v4zm0-7V0h4v4zm7-1V1h11v2zm0 7V8h11v2zm0 7v-2h11v2z"/>
</symbol><symbol id="icon-map-balloon" viewBox="0 0 22 30">
    <path d="M11 0C4.92 0 0 5.37 0 12c0 7.09 11 18 11 18s11-10.91 11-18c0-6.63-4.92-12-11-12zm0 8.18c1.38 0 2.5 1.22 2.5 2.73s-1.12 2.73-2.5 2.73-2.5-1.22-2.5-2.73S9.62 8.18 11 8.18z"/>
</symbol><symbol id="icon-mc" viewBox="0 0 30 20">
    <path d="M21.19 1.44c-2.13 0-4.09.74-5.61 1.96A9.41 9.41 0 0 0 9.27.99 9.14 9.14 0 0 0 0 10a9.15 9.15 0 0 0 9.27 9.01c2.44 0 4.65-.92 6.31-2.42a8.9 8.9 0 0 0 5.61 1.97A8.7 8.7 0 0 0 30 10a8.7 8.7 0 0 0-8.81-8.56zm0 14.89a6.57 6.57 0 0 1-4.13-1.44 8.79 8.79 0 0 0 0-9.78 6.57 6.57 0 0 1 4.13-1.44A6.43 6.43 0 0 1 27.7 10a6.43 6.43 0 0 1-6.51 6.33z"/>
</symbol><symbol id="icon-minus" viewBox="0 0 491.858 491.858">
    <path d="M465.167 211.613H26.69c-8.424 0-26.69 11.439-26.69 34.316s18.267 34.316 26.69 34.316H465.169c8.421 0 26.689-11.439 26.689-34.316s-18.268-34.316-26.691-34.316z"/>
</symbol><symbol id="icon-more" viewBox="0 0 15 16">
    
    <path class="cls-1" d="M7.5 14.55a6.339 6.339 0 0 1-6.145-6.51A6.707 6.707 0 0 1 3.75 2.83V6.4h1.5V.8H0v1.6h2.6c-.128.14-.69.27-.8.42a8.365 8.365 0 0 0 .853 11.27A7.206 7.206 0 0 0 7.5 16a4.665 4.665 0 0 0 .75-.04V14.5a6.256 6.256 0 0 1-.75.05zm5.813-1.51A8.268 8.268 0 0 0 15 8a7.76 7.76 0 0 0-7.5-8 4.671 4.671 0 0 0-.75.04V1.5a6.227 6.227 0 0 1 6.842 5.68 6.747 6.747 0 0 1-2.342 5.99V9.6h-1.5v5.6H15v-1.6h-2.79c.165-.18.953-.37 1.103-.56z"/>
</symbol><symbol id="icon-od" viewBox="0 0 30 30">
    <path d="M22 15c-1 0-3 2-7 2s-6-2-7-2a2 2 0 0 0-2 2c0 1 .568 1.481 1 1.734C8.185 19.427 12 21 12 21l-4.25 5.438S7 27.373 7 28a2 2 0 0 0 2 2c1.021 0 1.484-.656 1.484-.656S14.993 23.993 15 24c.007-.007 4.516 5.344 4.516 5.344S19.979 30 21 30a2 2 0 0 0 2-2c0-.627-.75-1.562-.75-1.562L18 21s3.815-1.573 5-2.266c.432-.253 1-.734 1-1.734a2 2 0 0 0-2-2z"/>
    <path d="M15 0a7 7 0 1 0 0 14 7 7 0 0 0 0-14zm0 10.5a3.5 3.5 0 1 1-.001-6.999A3.5 3.5 0 0 1 15 10.5z"/>
</symbol><symbol id="icon-p" viewBox="0 0 14 18">
    
    <path class="cls-1" d="M12.18 1.85A6.729 6.729 0 0 0 7.41 0a7.435 7.435 0 0 0-5.54 2.16A6.385 6.385 0 0 0 0 6.58c0 2.01.83 3.54 2.22 4.12a.918.918 0 0 0 .28.05.615.615 0 0 0 .6-.5c.05-.18.16-.62.21-.81a.766.766 0 0 0-.21-.82 2.642 2.642 0 0 1-.58-1.79A4.468 4.468 0 0 1 7.13 2.3c2.38 0 3.86 1.37 3.86 3.57a7.564 7.564 0 0 1-.83 3.62 2.469 2.469 0 0 1-2.04 1.44 1.344 1.344 0 0 1-1.08-.5 1.233 1.233 0 0 1-.21-1.08c.1-.46.25-.93.39-1.39a8.743 8.743 0 0 0 .49-2.25 1.625 1.625 0 0 0-1.63-1.8c-1.24 0-2.21 1.27-2.21 2.89a4.145 4.145 0 0 0 .31 1.62c-.16.67-1.09 4.65-1.26 5.4-.1.44-.72 3.89.3 4.17 1.14.31 2.16-3.06 2.26-3.44.08-.31.38-1.48.56-2.2a3.415 3.415 0 0 0 2.3.9 5.111 5.111 0 0 0 4.11-2.08A8.409 8.409 0 0 0 14 6.06a5.873 5.873 0 0 0-1.82-4.21z"/>
</symbol><symbol id="icon-pencil" viewBox="0 0 16 18">
    <path d="M15 16.15l-1.12-5.49c0-.13-.06-.24-.16-.34L5.67 1.76a2.35 2.35 0 0 0-3.46 0L.74 3.33A2.73 2.73 0 0 0 .74 7l8.05 8.56a.6.6 0 0 0 .28.17l5.2 1.26c.3.05.9-.16.73-.85zM1.63 6.05a1.31 1.31 0 0 1 0-1.8l1.48-1.57c.47-.5 1.23-.5 1.7 0l7.34 7.81h-.83c-.35 0-.64.31-.64.68v1.13H9.62c-.35 0-.64.3-.64.68v.85zm8.63 8.57v-.96h1.05c.56.06.64-.54.64-.68v-1.12h.9l.74 3.58z"/>
</symbol><symbol id="icon-plus" viewBox="0 0 491.86 491.86">
    <path d="M465.167 211.614H280.245V26.691c0-8.424-11.439-26.69-34.316-26.69s-34.316 18.267-34.316 26.69v184.924H26.69C18.267 211.614 0 223.053 0 245.929s18.267 34.316 26.69 34.316h184.924v184.924c0 8.422 11.438 26.69 34.316 26.69s34.316-18.268 34.316-26.69V280.245H465.17c8.422 0 26.69-11.438 26.69-34.316s-18.27-34.315-26.693-34.315z"/>
</symbol><symbol id="icon-promo-calendar" viewBox="0 0 47 40">
    
    <path class="cls-1" d="M0 4.737h7.05V0h4.7v4.737h4.7V0h4.7v4.737h4.7V0h4.7v4.737h4.7V0h4.7v4.737H47V40H0V4.737zm42.3 30.526V9.473h-2.35v2.369h-4.7V9.473h-4.7v2.369h-4.7V9.473h-4.7v2.369h-4.7V9.473h-4.7v2.369h-4.7V9.473H4.7v25.79h37.6zM9.4 14.21v4.737h4.7V14.21H9.4zm0 7.106v9.21h4.7v-9.21H9.4zm9.4-7.106v11.842h4.7V14.21h-4.7zm9.4 0v13.948h4.7V14.21h-4.7z"/>
</symbol><symbol id="icon-promo-pers" viewBox="0 0 54 45">
    
    <path class="cls-1" d="M40.724 17.833V22.5h7.14v16.333H24.682v-7h-4.637V43.5H52.5V17.833H40.724zM1.5 1.5v32.666h41.727V1.5H1.5zm37.091 28H6.136V6.166h32.455V29.5zM18.281 9.25a3.875 3.875 0 1 1-3.875 3.875 3.875 3.875 0 0 1 3.875-3.875zm9.042 9.05a3.877 3.877 0 1 1-3.874 3.877 3.874 3.874 0 0 1 3.874-3.877zm-.1-7.1l2.032 2.033-11.512 11.523-2.032-2.034z"/>
</symbol><symbol id="icon-rubl" viewBox="0 0 17.281 20.09">
    
    <path class="cls-1" d="M11.316 11.76H5.582v3.11h6.925v1.65H5.582v3.59H3.889v-3.59h-3.89v-1.65h3.89v-3.11c-.739 0-2.424.01-3.846.01 0-.54-.018-1.05-.018-1.56 1.029 0 3.014-.01 3.864-.01V0h7.427a5.881 5.881 0 1 1 0 11.76zm-.178-10.19H5.582v8.62h5.556a4.31 4.31 0 1 0 0-8.62z"/>
</symbol><symbol id="icon-search" viewBox="0 0 21 21">
    <path d="M17.07 2.69A7.76 7.76 0 0 0 6.19 13.6L0 19.75 1.25 21l6.17-6.18a7.75 7.75 0 1 0 9.65-12.13zm-4.81 12.06a6 6 0 1 1 0-12 6 6 0 0 1 0 12z"/>
</symbol><symbol id="icon-star" viewBox="0 0 17 16">
    <path d="M13.17 10.27l.88 3.78c.13.56-.28.99-.93.71l-4.3-1.92-4.08 2.35c-.57.32-1.02-.05-1-.64L4.27 10 .73 6.98c-.45-.4-.3-.97.3-1.12l4.67-.9L7.58.73c.29-.54.93-.58 1.2-.07l2.32 4.01 4.72.41c.62.06.88.62.41 1.09l-2.72 2.85s-.53.52-.34 1.24zm-1.4-1.34l2.57-2.67-3.73-.32a.7.7 0 0 1-.5-.32L8.25 2.44 6.78 5.78a.65.65 0 0 1-.47.38l-3.7.7 2.84 2.41c.15.14.24.35.21.56l-.45 3.6 3.24-1.85c.18-.1.4-.11.6-.04l3.4 1.53-.84-3.56a.67.67 0 0 1 .17-.58z"/>
</symbol><symbol id="icon-tile-view" viewBox="0 0 18 18">
    <path d="M0 18v-4h4v4zm0-7V7h4v4zm0-7V0h4v4zm7 14v-4h4v4zm0-7V7h4v4zm0-7V0h4v4zm7 14v-4h4v4zm0-7V7h4v4zm0-7V0h4v4z"/>
</symbol><symbol id="icon-user" viewBox="0 0 25 22">
    
    <path class="cls-1" d="M18.96 22H25l-1.25-6.677a6.7 6.7 0 0 0-5.18-5.236 9.533 9.533 0 0 0 .75-3.487 6.824 6.824 0 0 0-13.64 0 9.539 9.539 0 0 0 .76 3.487 6.711 6.711 0 0 0-5.19 5.236L0 22h6.04v-1.777H2.73l.77-4.515A4.5 4.5 0 0 1 7.53 12.1c1.24 1.859 3.02 3.3 4.97 3.3s3.73-1.408 4.97-3.3a4.494 4.494 0 0 1 4.03 3.575l.77 4.548h-3.31V22zm-6.46-8.723c-1.82 0-4.55-3.487-4.55-6.677a4.553 4.553 0 0 1 9.1 0c0 3.19-2.73 6.677-4.55 6.677z"/>
</symbol><symbol id="icon-visa" viewBox="0 0 43 15">
    <path d="M2.65 3.03l1.61 11.75H8.2L15.54.23H11.4L8.28 6.98A84 84 0 0 0 7.13 9.6c-.06-.83-.12-1.63-.2-2.46L6.29.23H0l6.55 5.3zm15.72 11.75L21.07.23h-3.7l-2.71 14.55zm2.18-.85c.87.66 2.39 1.06 4.08 1.06 3.51 0 5.87-2.03 5.87-5.04 0-1.65-.95-2.95-2.88-3.99-1.08-.62-1.74-1.04-1.74-1.56 0-.49.51-1.02 1.7-1.02a4.7 4.7 0 0 1 2.22.56l.43.23L31.41.93 31.1.76a6.71 6.71 0 0 0-3.36-.75c-3.36 0-5.71 2.01-5.71 4.88 0 2.08 1.61 3.24 3.01 4.01 1.33.7 1.59 1.1 1.59 1.56 0 .87-.93 1.18-1.72 1.18-1.03 0-2.11-.3-2.95-.81l-.41-.26-1.26 3.16zm13.52.85l1.59-3.55h3.22l.27 3.55H43L41.33.23h-4.3L30.1 14.78zm3.87-8.99c.15-.32.3-.69.45-1.08l.07.95.23 2.48h-1.8z"/>
</symbol><symbol id="icon-vk" viewBox="0 0 18 10">
    
    <path id="Forma_1" data-name="Forma 1" class="cls-1" d="M1030.9 4353.03a1.091 1.091 0 0 0-.06-.11 9.132 9.132 0 0 0-1.79-2.02l-.02-.02-.01-.01v-.01h-.01c-.4-.37-.66-.62-.76-.74a.672.672 0 0 1-.13-.74 6.33 6.33 0 0 1 .84-1.2c.26-.32.46-.58.61-.78 1.08-1.4 1.55-2.29 1.4-2.68l-.05-.09a.513.513 0 0 0-.29-.15 1.456 1.456 0 0 0-.6-.02l-2.7.01a.427.427 0 0 0-.19.01l-.12.03-.05.02-.03.03a.292.292 0 0 0-.11.09.507.507 0 0 0-.09.16 16.4 16.4 0 0 1-1 2.06c-.24.37-.45.7-.64.98a6.039 6.039 0 0 1-.49.61 4.125 4.125 0 0 1-.35.31.323.323 0 0 1-.25.1l-.16-.03a.583.583 0 0 1-.21-.23 1.031 1.031 0 0 1-.11-.35c-.01-.15-.03-.27-.03-.37s0-.25.01-.44.01-.32.01-.38c0-.23 0-.49.01-.76s.02-.48.02-.64.01-.33.01-.5a2.264 2.264 0 0 0-.03-.42 1.419 1.419 0 0 0-.1-.29.51.51 0 0 0-.19-.22 1.189 1.189 0 0 0-.32-.12 6.9 6.9 0 0 0-1.26-.12 6.31 6.31 0 0 0-2.24.22 1.542 1.542 0 0 0-.36.27c-.11.14-.12.21-.04.22a1.188 1.188 0 0 1 .79.39l.06.11a1.754 1.754 0 0 1 .13.42 6.052 6.052 0 0 1 .09.67 7.186 7.186 0 0 1 0 1.14c-.04.32-.07.56-.09.74a1.37 1.37 0 0 1-.13.43 1.871 1.871 0 0 1-.11.2l-.05.05a.727.727 0 0 1-.25.04.556.556 0 0 1-.32-.13 1.759 1.759 0 0 1-.39-.35 4.805 4.805 0 0 1-.45-.62c-.17-.27-.35-.59-.53-.95l-.15-.27c-.09-.17-.22-.42-.38-.74a9.716 9.716 0 0 1-.43-.95.663.663 0 0 0-.23-.29l-.05-.03a.529.529 0 0 0-.15-.07.727.727 0 0 0-.21-.06l-2.57.02a.637.637 0 0 0-.53.17l-.04.05a.281.281 0 0 0-.03.15.688.688 0 0 0 .06.25c.37.85.78 1.68 1.22 2.48s.82 1.44 1.15 1.93.65.94.99 1.37.56.71.67.83.2.22.26.28l.23.22a5.861 5.861 0 0 0 .66.52 8.93 8.93 0 0 0 .97.6 5.347 5.347 0 0 0 1.23.49 4.681 4.681 0 0 0 1.37.15h1.08a.764.764 0 0 0 .49-.2l.04-.05a.392.392 0 0 0 .07-.17.952.952 0 0 0 .03-.25 3.728 3.728 0 0 1 .06-.7 2.045 2.045 0 0 1 .16-.48.973.973 0 0 1 .21-.27.493.493 0 0 1 .16-.13.133.133 0 0 1 .07-.03.609.609 0 0 1 .53.14 3.121 3.121 0 0 1 .57.53c.18.21.39.44.64.71a4.389 4.389 0 0 0 .66.58l.19.11a2.238 2.238 0 0 0 .48.2 1.121 1.121 0 0 0 .53.05l2.4-.04a1.19 1.19 0 0 0 .55-.11.432.432 0 0 0 .23-.26.636.636 0 0 0 .01-.31.773.773 0 0 0-.07-.24z" transform="translate(-1013 -4344)"/>
</symbol></svg>