<svg xmlns="http://www.w3.org/2000/svg" width="97" height="104" viewBox="0 0 97 104"><path fill="#ed691f" d="M97 51.13l-.02-.7v-.18c-.33-14.19-4.67-26.98-11.45-36.11C79.5 5.98 71.53.72 62.7 0h-.34l-.37.04c-.46-.02-.9-.04-1.37-.04H36.39c-9.01 0-17.26 4.71-23.6 12.47-.19.16-.34.35-.45.56C4.77 22.57 0 36.52 0 52c0 28.6 16.28 52 36.38 52h24.24c.5 0 .99-.02 1.48-.05l.43.05c16.63-1.39 30.49-18.37 33.78-41.77l.05-.55c.42-3.14.64-6.37.64-9.68v-.35-.52zM39.7 79.29c-.04-.2-.11-.39-.22-.56-3.07-7.67-4.85-16.86-4.85-26.73 0-25.59 12.08-46.58 27.46-48.48C79.6 4.66 93.54 26.03 93.54 52c0 25.97-13.94 47.34-31.44 48.48-9.4-1.15-17.48-9.28-22.39-21.19zM5.62 69.26a4.9 4.9 0 0 0 1.13-.62l2.26-3.47 3.63 3.64c.7.7 1.74.7 2.43 0l3.98-3.98 4.16 4.16c.7.69 1.73.69 2.43 0l4.15-4.16 2.85 2.54c.6 3.1 1.38 6.07 2.33 8.88l-3.1-1.54c-.86-.52-1.73-.18-2.25.52l-2.25 3.46-3.64-3.64a1.68 1.68 0 0 0-2.42 0l-3.99 3.99-3.98-3.99a1.68 1.68 0 0 0-2.43 0l-2.5 2.51a60.6 60.6 0 0 1-2.79-8.3zM3.47 52.85l4.32 2.44c.7.35 1.56.18 2.08-.34l3.99-3.99L18 54.95c.7.69 1.74.69 2.43 0l4.16-4.16 6.63 4.01c.08 2.49.27 4.94.57 7.33l-1.31-1.12c-.7-.52-1.74-.34-2.26.18l-3.98 3.98-3.98-3.98c-.7-.7-1.74-.7-2.43 0l-3.98 3.98-3.99-3.98a1.95 1.95 0 0 0-1.38-.52c-.52 0-1.04.34-1.39.69l-2.43 3.65a69.91 69.91 0 0 1-1.2-12.16zm5.66-28.04l3.86 2.58a1.9 1.9 0 0 0 1.9 0l4.16-2.78 4.33 2.95c.52.35 1.39.35 1.9 0l4.34-2.95 5.52 2.69a69.84 69.84 0 0 0-2.3 8.35l-2.18-2.2a1.68 1.68 0 0 0-2.43 0l-3.98 3.99-3.99-3.99a1.68 1.68 0 0 0-2.42 0l-3.98 3.99-3.99-3.99a1.6 1.6 0 0 0-1.2-.52c-.53 0-.88.18-1.22.52L5.4 35.56c.94-3.83 2.2-7.43 3.72-10.75zm5.58-9.31l10.93-3.19 4.5 2.94c.52.35 1.38.35 1.9 0l4.34-2.94 4.83 2.34a55.06 55.06 0 0 0-4.9 9.5l-6.34-3.18a2.05 2.05 0 0 0-1.74.18l-4.15 2.77-4.16-2.77a1.86 1.86 0 0 0-1.9 0l-4.16 2.77-3.16-2.24a46.57 46.57 0 0 1 4-6.18zm10.4 31.65a1.83 1.83 0 0 0-2.07.34l-3.99 3.99-3.98-3.99a1.68 1.68 0 0 0-2.43 0l-4.33 4.34-4.78-2.76c.1-2.59.35-5.13.72-7.6.21-.09.43-.22.6-.39l3.81-3.99 3.98 3.99c.7.69 1.74.69 2.43 0l3.98-3.99 3.99 3.99c.69.69 1.73.69 2.42 0l3.99-3.99 2.25 2.26c.13.13.27.23.42.31a80.76 80.76 0 0 0-.93 11.13zm18.05-35.26l-6.1-3.05a2.08 2.08 0 0 0-1.72.17l-4.16 2.78-4.16-2.78c-.52-.34-1.04-.34-1.56-.34l-6 1.71C24.4 6 30.19 3.47 36.37 3.47h15.86a34 34 0 0 0-9.07 8.42zM9.94 80.88l2.19-2.19 3.98 3.99c.7.69 1.73.69 2.42 0l3.99-3.99 3.98 3.99c.35.35.7.52 1.21.52.7 0 1.22-.35 1.39-.87l2.6-3.98 5 2.5c1.3 3.08 2.81 5.93 4.5 8.5l-3.27 2.17-4.15-2.77a1.86 1.86 0 0 0-1.9 0l-4.17 2.77-4.15-2.77a1.86 1.86 0 0 0-1.9 0l-4.29 2.85a44.31 44.31 0 0 1-7.43-10.72zm9.93 13.1l2.65-1.77 4.33 2.78a1.9 1.9 0 0 0 1.9 0l4.16-2.78 3.99 2.95c.51.35 1.38.35 1.9 0l4.43-2.95a34 34 0 0 0 9.06 8.32H36.38c-6.02 0-11.66-2.39-16.5-6.55zM64.1 13.87c-8.97 0-16.49 10.04-19.44 24.44l-.05.25-.23 1.2-.07.41-.15.85-.09.57-.13.96-.08.58a85.91 85.91 0 0 0-.39 4.07l-.03.44-.05 1.03-.01.31a68.91 68.91 0 0 0 0 6.04l.01.31.05 1.03.03.44a76.68 76.68 0 0 0 .4 4.07l.07.58a79.16 79.16 0 0 0 .37 2.38l.07.41.23 1.2.05.25c2.95 14.4 10.47 24.44 19.44 24.44 11.6 0 20.78-16.81 20.78-38.13 0-21.32-9.17-38.13-20.78-38.13zm-17.1 43.61l-.02-.32-.03-.48-.05-.67-.02-.39-.05-1.06v-.19a49.15 49.15 0 0 1-.04-3.35 60.1 60.1 0 0 1 2.85-17.76C52.17 37.6 53.7 44.46 53.7 52c0 7.54-1.53 14.39-4.07 18.74A58.13 58.13 0 0 1 47 57.48zm17.1 29.19c-5.1 0-9.78-4.74-12.99-12.07 3.67-4.51 6.06-13.11 6.06-22.6 0-9.49-2.39-18.09-6.06-22.6 3.21-7.33 7.9-12.07 12.99-12.07 9.35 0 17.32 15.95 17.32 34.67 0 18.72-7.97 34.67-17.32 34.67z"/></svg>